<?xml version="1.0" encoding="UTF-8" standalone="no"?>
<svg
   xmlns:dc="http://purl.org/dc/elements/1.1/"
   xmlns:cc="http://creativecommons.org/ns#"
   xmlns:rdf="http://www.w3.org/1999/02/22-rdf-syntax-ns#"
   xmlns:svg="http://www.w3.org/2000/svg"
   xmlns="http://www.w3.org/2000/svg"
   xmlns:sodipodi="http://sodipodi.sourceforge.net/DTD/sodipodi-0.dtd"
   xmlns:inkscape="http://www.inkscape.org/namespaces/inkscape"
   id="Layer_1"
   data-name="Layer 1"
   viewBox="0 0 590.4199 655.45114"
   version="1.1"
   sodipodi:docname="der_logo_white.svg"
   width="590.41992"
   height="655.45111"
   inkscape:version="0.92.3 (2405546, 2018-03-11)">
  <metadata
     id="metadata61">
    <rdf:RDF>
      <cc:Work
         rdf:about="">
        <dc:format>image/svg+xml</dc:format>
        <dc:type
           rdf:resource="http://purl.org/dc/dcmitype/StillImage" />
        <dc:title>der_black</dc:title>
      </cc:Work>
    </rdf:RDF>
  </metadata>
  <sodipodi:namedview
     pagecolor="#ffffff"
     bordercolor="#666666"
     borderopacity="1"
     objecttolerance="10"
     gridtolerance="10"
     guidetolerance="10"
     inkscape:pageopacity="0"
     inkscape:pageshadow="2"
     inkscape:window-width="1920"
     inkscape:window-height="1052"
     id="namedview59"
     showgrid="false"
     showguides="false"
     fit-margin-top="0"
     fit-margin-left="0"
     fit-margin-right="0"
     fit-margin-bottom="0"
     inkscape:zoom="0.81378861"
     inkscape:cx="531.66494"
     inkscape:cy="375.75602"
     inkscape:window-x="0"
     inkscape:window-y="0"
     inkscape:window-maximized="1"
     inkscape:current-layer="Layer_1" />
  <defs
     id="defs4">
    <style
       id="style2">.cls-1{fill:#fff;}.cls-2{fill:#f4cd45;}.cls-3{fill:#53c1b4;}.cls-4{fill:#3ca2da;}.cls-5{fill:#f27057;}.cls-6{fill:#ea1b3b;}.cls-7{fill:#77549e;}</style>
  </defs>
  <title
     id="title6">der_black</title>
  <path
     style="fill:#ffffff"
     d="M 295.18945,0 C 280.7932,0 266.395,3.5532035 254,10.658203 L 41.179688,133.47852 C 16.399688,147.69852 0,176.48821 0,204.90821 v 115.53906 14.21094 115.90039 c 0,28.79 16.399687,57.21945 41.179688,71.43945 L 254,644.8086 c 24.81,14.19 57.61064,14.19 82.39062,0 L 549.23047,521.99805 v -0.01 c 24.42,-14.58 40.81945,-43.00968 41.18945,-71.42968 V 334.65821 320.44727 204.90821 c 0,-28.79 -16.39945,-57.20969 -41.18945,-71.42969 L 448.86914,75.570313 448.95703,75.419922 436.6543,68.308594 436.5625,68.46875 336.36914,10.658203 C 323.97914,3.5532036 309.5857,0 295.18945,0 Z m -0.16406,18.767578 c 13.575,0 27.14945,3.371328 38.81445,10.111328 l 94.15235,54.414063 -62.10938,107.449221 -49.17187,-28.47461 c -13.12,-7.28 -30.25,-7.28 -43,0 l -49.48047,28.4668 -62.0332,-107.490239 94.01367,-54.365235 c 11.665,-6.74 25.23945,-10.111328 38.81445,-10.111328 z M 440.375,90.265625 534.65039,144.77735 c 22.97,13.12 38.63867,40.06054 38.63867,67.06054 V 320.44727 H 449.00977 v -56.85938 c 0,-14.94 -8.74977,-29.87992 -21.50977,-37.16992 l -49.25,-28.67969 z m -290.47852,0.09375 62.01368,107.457035 -49.40039,28.60156 C 149.74977,233.70797 141,248.64789 141,263.58789 v 56.85938 H 16.769531 v -108.5586 c 0,-26.96999 15.68,-53.94054 39,-67.06054 z m 145.30274,83.835945 c 6.74425,0 13.4886,1.66369 19.29297,4.99218 l 99.71875,57.53907 c 11.6134,6.66168 19.29687,19.97557 19.29687,33.46289 v 115.08007 c -0.1734,13.31399 -7.85687,26.63256 -19.29687,33.4629 v 0.004 l -99.70899,57.5332 c -11.60874,6.64762 -26.97488,6.64762 -38.59765,0 l -99.70118,-57.5332 c -11.60875,-6.66167 -19.29101,-19.97948 -19.29101,-33.4668 V 270.18946 c 0,-13.31398 7.68227,-26.80121 19.29101,-33.46289 L 275.9043,179.1875 c 5.80669,-3.32849 12.55067,-4.99218 19.29492,-4.99218 z M 16.759766,334.65821 H 141 v 57.2207 c 0,14.94 8.79078,29.87992 21.55078,37.16992 l 49.0586,28.57813 -62.1211,107.46679 -94.087889,-54.40625 c -22.96,-13.48 -38.640625,-40.05859 -38.640625,-67.05859 z m 432.240234,0 h 123.94922 v 108.9707 c 0,26.61 -15.29891,53.57859 -38.62891,67.05859 L 440.26758,565.07227 378.23047,457.57813 427.5,429.04883 c 12.75,-7.28 21.5,-22.22992 21.5,-37.16992 z m -224.85938,129.68359 49.20899,28.48633 c 13.11,7.29 30.24,7.29 43,0 l 49.41601,-28.42188 62.03711,107.49414 -93.95312,54.31836 c -23.33,13.49 -54.29891,13.49 -77.62891,0 l -94.17968,-54.44922 z"
     id="path8"
     inkscape:connector-curvature="0" />
  <path
     inkscape:connector-curvature="0"
     class="cls-1"
     d="m 383.54735,395.28973 -74.01703,42.70828 c -8.61746,4.9347 -20.02399,4.9347 -28.65187,0 l -74.01008,-42.70828 c -8.61748,-4.94512 -14.32072,-14.83192 -14.32072,-24.8439 v -85.427 c 0,-9.88331 5.70325,-19.89528 14.32072,-24.84041 l 74.01007,-42.71177 c 8.62091,-4.94165 20.02745,-4.94165 28.64491,0 l 74.02399,42.71177 c 8.62092,4.94513 14.32421,14.82843 14.32421,24.84041 v 85.427 c -0.12872,9.88331 -5.832,19.7701 -14.32421,24.84043"
     id="path8-3"
     style="fill:#ffffff;stroke-width:0.34775895" />
</svg>
