<?xml version="1.0" encoding="UTF-8" standalone="no"?>
<!-- Created with Inkscape (http://www.inkscape.org/) -->

<svg
   xmlns:dc="http://purl.org/dc/elements/1.1/"
   xmlns:cc="http://creativecommons.org/ns#"
   xmlns:rdf="http://www.w3.org/1999/02/22-rdf-syntax-ns#"
   xmlns:svg="http://www.w3.org/2000/svg"
   xmlns="http://www.w3.org/2000/svg"
   xmlns:sodipodi="http://sodipodi.sourceforge.net/DTD/sodipodi-0.dtd"
   xmlns:inkscape="http://www.inkscape.org/namespaces/inkscape"
   width="134.64986mm"
   height="15.38957mm"
   viewBox="0 0 134.64986 15.38957"
   version="1.1"
   id="svg8"
   inkscape:version="0.92.3 (2405546, 2018-03-11)"
   sodipodi:docname="dos-logo.svg">
  <defs
     id="defs2" />
  <sodipodi:namedview
     id="base"
     pagecolor="#ffffff"
     bordercolor="#666666"
     borderopacity="1.0"
     inkscape:pageopacity="0.0"
     inkscape:pageshadow="2"
     inkscape:zoom="0.35"
     inkscape:cx="-28.779387"
     inkscape:cy="11.417841"
     inkscape:document-units="mm"
     inkscape:current-layer="layer1"
     showgrid="false"
     showguides="false"
     fit-margin-top="0"
     fit-margin-left="0"
     fit-margin-right="0"
     fit-margin-bottom="0"
     inkscape:window-width="1920"
     inkscape:window-height="1052"
     inkscape:window-x="0"
     inkscape:window-y="0"
     inkscape:window-maximized="1" />
  <metadata
     id="metadata5">
    <rdf:RDF>
      <cc:Work
         rdf:about="">
        <dc:format>image/svg+xml</dc:format>
        <dc:type
           rdf:resource="http://purl.org/dc/dcmitype/StillImage" />
        <dc:title></dc:title>
      </cc:Work>
    </rdf:RDF>
  </metadata>
  <g
     inkscape:label="Layer 1"
     inkscape:groupmode="layer"
     id="layer1"
     transform="translate(165.5193,-103.40322)">
    <g
       aria-label="democraciaOS"
       style="font-style:normal;font-variant:normal;font-weight:normal;font-stretch:normal;font-size:10.58333302px;line-height:1.25;font-family:'Lexend Deca';-inkscape-font-specification:'Lexend Deca';letter-spacing:0px;word-spacing:0px;fill:#ffffff;fill-opacity:1;stroke:none;stroke-width:0.26458332"
       id="text817">
      <path
         d="m -155.16739,103.97613 v 14.61911 h -2.03482 v -1.46191 q -0.45438,0.61242 -1.34338,1.14582 -0.889,0.51364 -2.01507,0.51364 -1.40264,0 -2.52871,-0.69144 -1.12607,-0.69145 -1.778,-1.91629 -0.65193,-1.22484 -0.65193,-2.78553 0,-1.58045 0.65193,-2.78554 0.65193,-1.22484 1.75825,-1.91629 1.10631,-0.69144 2.4892,-0.69144 1.10631,0 1.99531,0.45438 0.90875,0.45438 1.4224,1.0668 v -5.55131 z m -5.11669,13.05842 q 0.94827,0 1.65947,-0.47413 0.7112,-0.47414 1.10631,-1.30387 0.39511,-0.82973 0.39511,-1.85702 0,-1.04705 -0.39511,-1.85703 -0.39511,-0.82973 -1.10631,-1.30386 -0.7112,-0.47414 -1.65947,-0.47414 -0.92851,0 -1.63971,0.47414 -0.7112,0.47413 -1.12607,1.30386 -0.39511,0.80998 -0.39511,1.85703 0,1.02729 0.39511,1.85702 0.41487,0.82973 1.12607,1.30387 0.7112,0.47413 1.63971,0.47413 z"
         style="font-style:normal;font-variant:normal;font-weight:normal;font-stretch:normal;font-size:19.75555611px;font-family:'Lexend Deca';-inkscape-font-specification:'Lexend Deca';letter-spacing:-0.40745831px;baseline-shift:baseline;fill:#ffffff;stroke-width:0.26458332"
         id="path819"
         inkscape:connector-curvature="0" />
      <path
         d="m -143.84468,117.2321 h -0.0197 q -0.63218,0.61243 -1.73849,1.08656 -1.10631,0.47413 -2.3114,0.47413 -1.61996,0 -2.86456,-0.67169 -1.22484,-0.69144 -1.91629,-1.87677 -0.69144,-1.20509 -0.69144,-2.72627 0,-1.73849 0.73095,-2.96333 0.73096,-1.2446 1.93605,-1.89654 1.20509,-0.67169 2.62749,-0.67169 1.30386,0 2.37066,0.65194 1.0668,0.63218 1.69898,1.75824 0.63218,1.12607 0.63218,2.62749 l -0.0198,0.86925 h -7.94173 q 0.1778,1.40264 1.14582,2.23237 0.98778,0.80998 2.4892,0.80998 1.08656,0 1.75825,-0.39511 0.67169,-0.41487 1.10631,-0.79022 z m -4.24744,-7.36882 q -1.16558,0 -2.03483,0.55316 -0.86924,0.5334 -1.14582,1.85702 h 5.80814 v -0.13829 q -0.0593,-0.67169 -0.45438,-1.18533 -0.37536,-0.51365 -0.94827,-0.79022 -0.57291,-0.29634 -1.22484,-0.29634 z"
         style="font-style:normal;font-variant:normal;font-weight:normal;font-stretch:normal;font-size:19.75555611px;font-family:'Lexend Deca';-inkscape-font-specification:'Lexend Deca';letter-spacing:-0.40745831px;baseline-shift:baseline;fill:#ffffff;stroke-width:0.26458332"
         id="path821"
         inkscape:connector-curvature="0" />
      <path
         d="m -136.31164,108.04577 q 1.28411,0 2.05458,0.59267 0.77047,0.57291 1.10631,1.58044 0.27658,-0.49389 0.80998,-0.98778 0.5334,-0.51364 1.2446,-0.84948 0.7112,-0.33585 1.52118,-0.33585 1.34337,0 2.09409,0.59267 0.75071,0.57291 1.04704,1.56069 0.31609,0.96802 0.31609,2.17311 v 6.223 h -2.05458 v -6.10447 q 0,-1.14582 -0.43462,-1.85702 -0.43462,-0.7112 -1.63971,-0.7112 -1.14582,0 -1.89654,0.73095 -0.73095,0.7112 -0.73095,1.73849 v 6.20325 h -2.05458 v -6.14398 q 0,-1.10631 -0.47413,-1.81751 -0.47414,-0.7112 -1.56069,-0.7112 -0.75071,0 -1.34338,0.33584 -0.59267,0.33585 -0.92851,0.889 -0.33585,0.5334 -0.33585,1.20509 v 6.24276 h -2.05457 v -10.37167 h 2.05457 v 1.65947 q 0.47414,-0.7112 1.32363,-1.26436 0.86924,-0.57291 1.93604,-0.57291 z"
         style="font-style:normal;font-variant:normal;font-weight:normal;font-stretch:normal;font-size:19.75555611px;font-family:'Lexend Deca';-inkscape-font-specification:'Lexend Deca';letter-spacing:-0.40745831px;baseline-shift:baseline;fill:#ffffff;stroke-width:0.26458332"
         id="path823"
         inkscape:connector-curvature="0" />
      <path
         d="m -113.84463,113.39953 q 0,1.58044 -0.7112,2.80529 -0.69145,1.20508 -1.89654,1.89653 -1.18533,0.69144 -2.667,0.69144 -1.48166,0 -2.68675,-0.69144 -1.20509,-0.69145 -1.91629,-1.89653 -0.69145,-1.22485 -0.69145,-2.80529 0,-1.58045 0.69145,-2.78554 0.7112,-1.22484 1.91629,-1.91629 1.20509,-0.69144 2.68675,-0.69144 1.48167,0 2.667,0.69144 1.20509,0.69145 1.89654,1.91629 0.7112,1.20509 0.7112,2.78554 z m -2.07434,0 q 0.0198,-1.04705 -0.41486,-1.83727 -0.41487,-0.80998 -1.14583,-1.2446 -0.73095,-0.45438 -1.63971,-0.45438 -0.90875,0 -1.65946,0.45438 -0.73096,0.43462 -1.16558,1.2446 -0.41487,0.79022 -0.39511,1.83727 -0.0198,1.02729 0.39511,1.83726 0.43462,0.79023 1.16558,1.2446 0.75071,0.45438 1.65946,0.45438 0.90876,0 1.63971,-0.45438 0.73096,-0.45437 1.14583,-1.2446 0.43462,-0.80997 0.41486,-1.83726 z"
         style="font-style:normal;font-variant:normal;font-weight:normal;font-stretch:normal;font-size:19.75555611px;font-family:'Lexend Deca';-inkscape-font-specification:'Lexend Deca';letter-spacing:-0.40745831px;baseline-shift:baseline;fill:#ffffff;stroke-width:0.26458332"
         id="path825"
         inkscape:connector-curvature="0" />
      <path
         d="m -110.73097,113.39953 q 0,1.02729 0.45438,1.83726 0.47413,0.79023 1.22484,1.26436 0.77047,0.45438 1.63971,0.45438 0.98778,0 1.71874,-0.51365 0.73095,-0.51364 1.18533,-1.0668 l 1.12607,1.38289 q -0.37536,0.5334 -1.02729,1.00753 -0.65194,0.45438 -1.48167,0.75072 -0.82973,0.27657 -1.73849,0.27657 -1.4224,0 -2.56822,-0.7112 -1.14582,-0.7112 -1.81751,-1.93604 -0.65193,-1.22485 -0.65193,-2.74602 0,-1.54094 0.65193,-2.74603 0.67169,-1.22484 1.81751,-1.93604 1.14582,-0.7112 2.56822,-0.7112 1.44216,0 2.56822,0.59267 1.12607,0.57291 1.67923,1.50142 l -1.12607,1.38289 q -0.45438,-0.67169 -1.30387,-1.14582 -0.82973,-0.49389 -1.61995,-0.49389 -0.92851,0 -1.67922,0.47413 -0.75072,0.45438 -1.18534,1.26436 -0.43462,0.79022 -0.43462,1.81751 z"
         style="font-style:normal;font-variant:normal;font-weight:normal;font-stretch:normal;font-size:19.75555611px;font-family:'Lexend Deca';-inkscape-font-specification:'Lexend Deca';letter-spacing:-0.40745831px;baseline-shift:baseline;fill:#ffffff;stroke-width:0.26458332"
         id="path827"
         inkscape:connector-curvature="0" />
      <path
         d="m -96.061855,110.41644 q -0.197556,-0.0988 -0.493889,-0.15805 -0.276578,-0.079 -0.592667,-0.079 -0.632178,0 -1.2446,0.33585 -0.612422,0.31608 -1.027289,0.92851 -0.395111,0.59266 -0.395111,1.4224 v 5.72911 h -2.054579 v -10.37167 h 2.054579 v 1.9558 q 0.434622,-0.94827 1.303867,-1.56069 0.889,-0.61242 1.857022,-0.61242 0.730956,0 1.126067,0.19756 z"
         style="font-style:normal;font-variant:normal;font-weight:normal;font-stretch:normal;font-size:19.75555611px;font-family:'Lexend Deca';-inkscape-font-specification:'Lexend Deca';letter-spacing:-0.40745831px;baseline-shift:baseline;fill:#ffffff;stroke-width:0.26458332"
         id="path829"
         inkscape:connector-curvature="0" />
      <path
         d="m -85.092891,108.22357 v 10.37167 h -2.054578 v -1.6002 q -0.474134,0.65193 -1.402645,1.22484 -0.928511,0.57291 -2.153355,0.57291 -1.303867,0 -2.390423,-0.69144 -1.0668,-0.69145 -1.698977,-1.91629 -0.632178,-1.22484 -0.632178,-2.80529 0,-1.58044 0.651933,-2.78553 0.651933,-1.22485 1.797756,-1.89654 1.145822,-0.69144 2.607733,-0.69144 1.086556,0 1.896534,0.47413 0.829733,0.47414 1.323622,1.10631 v -1.36313 z m -5.136445,8.69245 q 0.948267,0 1.659467,-0.45438 0.7112,-0.47414 1.106311,-1.26436 0.395111,-0.80998 0.395111,-1.81751 0,-0.98778 -0.395111,-1.778 -0.395111,-0.79022 -1.106311,-1.2446 -0.7112,-0.47413 -1.659467,-0.47413 -0.908756,0 -1.619956,0.45438 -0.7112,0.45437 -1.106311,1.2446 -0.395111,0.79022 -0.395111,1.79775 0,1.00753 0.395111,1.81751 0.395111,0.79022 1.106311,1.26436 0.7112,0.45438 1.619956,0.45438 z"
         style="font-style:normal;font-variant:normal;font-weight:normal;font-stretch:normal;font-size:19.75555611px;font-family:'Lexend Deca';-inkscape-font-specification:'Lexend Deca';letter-spacing:-0.40745831px;baseline-shift:baseline;fill:#ffffff;stroke-width:0.26458332"
         id="path831"
         inkscape:connector-curvature="0" />
      <path
         d="m -81.355383,113.39953 q 0,1.02729 0.454378,1.83726 0.474133,0.79023 1.224844,1.26436 0.770467,0.45438 1.639711,0.45438 0.987778,0 1.718734,-0.51365 0.730955,-0.51364 1.185333,-1.0668 l 1.126067,1.38289 q -0.375356,0.5334 -1.027289,1.00753 -0.651933,0.45438 -1.481667,0.75072 -0.829733,0.27657 -1.738489,0.27657 -1.4224,0 -2.568222,-0.7112 -1.145822,-0.7112 -1.817511,-1.93604 -0.651934,-1.22485 -0.651934,-2.74602 0,-1.54094 0.651934,-2.74603 0.671689,-1.22484 1.817511,-1.93604 1.145822,-0.7112 2.568222,-0.7112 1.442156,0 2.568223,0.59267 1.126066,0.57291 1.679222,1.50142 l -1.126067,1.38289 q -0.454378,-0.67169 -1.303867,-1.14582 -0.829733,-0.49389 -1.619955,-0.49389 -0.928511,0 -1.679222,0.47413 -0.750712,0.45438 -1.185334,1.26436 -0.434622,0.79022 -0.434622,1.81751 z"
         style="font-style:normal;font-variant:normal;font-weight:normal;font-stretch:normal;font-size:19.75555611px;font-family:'Lexend Deca';-inkscape-font-specification:'Lexend Deca';letter-spacing:-0.40745831px;baseline-shift:baseline;fill:#ffffff;stroke-width:0.26458332"
         id="path833"
         inkscape:connector-curvature="0" />
      <path
         d="m -71.131268,105.97144 q -0.691445,0 -1.027289,-0.3556 -0.335844,-0.3556 -0.335844,-0.92851 0,-0.49389 0.335844,-0.889 0.335844,-0.39511 1.027289,-0.39511 0.691444,0 1.027289,0.3556 0.335844,0.3556 0.335844,0.92851 0,0.49389 -0.335844,0.889 -0.335845,0.39511 -1.027289,0.39511 z m 1.047044,12.6238 h -2.034822 v -10.37167 h 2.034822 z"
         style="font-style:normal;font-variant:normal;font-weight:normal;font-stretch:normal;font-size:19.75555611px;font-family:'Lexend Deca';-inkscape-font-specification:'Lexend Deca';letter-spacing:-0.40745831px;baseline-shift:baseline;fill:#ffffff;stroke-width:0.26458332"
         id="path835"
         inkscape:connector-curvature="0" />
      <path
         d="m -57.76231,108.22357 v 10.37167 h -2.054578 v -1.6002 q -0.474133,0.65193 -1.402644,1.22484 -0.928511,0.57291 -2.153356,0.57291 -1.303866,0 -2.390422,-0.69144 -1.0668,-0.69145 -1.698978,-1.91629 -0.632178,-1.22484 -0.632178,-2.80529 0,-1.58044 0.651934,-2.78553 0.651933,-1.22485 1.797755,-1.89654 1.145823,-0.69144 2.607734,-0.69144 1.086555,0 1.896533,0.47413 0.829734,0.47414 1.323622,1.10631 v -1.36313 z m -5.136444,8.69245 q 0.948266,0 1.659466,-0.45438 0.7112,-0.47414 1.106312,-1.26436 0.395111,-0.80998 0.395111,-1.81751 0,-0.98778 -0.395111,-1.778 -0.395112,-0.79022 -1.106312,-1.2446 -0.7112,-0.47413 -1.659466,-0.47413 -0.908756,0 -1.619956,0.45438 -0.7112,0.45437 -1.106311,1.2446 -0.395111,0.79022 -0.395111,1.79775 0,1.00753 0.395111,1.81751 0.395111,0.79022 1.106311,1.26436 0.7112,0.45438 1.619956,0.45438 z"
         style="font-style:normal;font-variant:normal;font-weight:normal;font-stretch:normal;font-size:19.75555611px;font-family:'Lexend Deca';-inkscape-font-specification:'Lexend Deca';letter-spacing:-0.40745831px;baseline-shift:baseline;fill:#ffffff;stroke-width:0.26458332"
         id="path837"
         inkscape:connector-curvature="0" />
      <path
         d="m -42.636347,111.68079 q 0,1.50143 -0.493888,2.80529 -0.493889,1.28411 -1.422401,2.25214 -0.908755,0.96802 -2.153355,1.52117 -1.224845,0.5334 -2.706511,0.5334 -1.481667,0 -2.726267,-0.5334 -1.2446,-0.55315 -2.153356,-1.52117 -0.908755,-0.96803 -1.402644,-2.25214 -0.493889,-1.30386 -0.493889,-2.80529 0,-1.50142 0.493889,-2.78553 0.493889,-1.30387 1.402644,-2.27189 0.908756,-0.96802 2.153356,-1.50142 1.2446,-0.55316 2.726267,-0.55316 1.481666,0 2.706511,0.55316 1.2446,0.5334 2.153355,1.50142 0.928512,0.96802 1.422401,2.27189 0.493888,1.28411 0.493888,2.78553 z m -2.173111,0 q 0,-1.44215 -0.592666,-2.56822 -0.592667,-1.14582 -1.639712,-1.79775 -1.027288,-0.67169 -2.370666,-0.67169 -1.363134,0 -2.410178,0.67169 -1.027289,0.65193 -1.619956,1.79775 -0.572911,1.12607 -0.572911,2.56822 0,1.44216 0.572911,2.58798 0.592667,1.12607 1.619956,1.79776 1.047044,0.65193 2.410178,0.65193 1.343378,0 2.370666,-0.65193 1.047045,-0.67169 1.639712,-1.81751 0.592666,-1.14583 0.592666,-2.56823 z"
         style="font-style:normal;font-variant:normal;font-weight:normal;font-stretch:normal;font-size:19.75555611px;font-family:'Lexend Deca';-inkscape-font-specification:'Lexend Deca';letter-spacing:-0.40745831px;baseline-shift:baseline;fill:#ffffff;stroke-width:0.26458332"
         id="path839"
         inkscape:connector-curvature="0" />
      <path
         d="m -39.660663,114.42682 q 0.809978,1.16557 1.679223,1.81751 0.889,0.63217 2.291644,0.63217 0.671689,0 1.284111,-0.21731 0.612423,-0.21731 1.007534,-0.63217 0.395111,-0.41487 0.395111,-0.98778 0,-0.98778 -0.849489,-1.54094 -0.829733,-0.55315 -2.350911,-0.84948 -1.936045,-0.39512 -3.081867,-1.36314 -1.145822,-0.98778 -1.145822,-2.8448 0,-1.18533 0.651933,-2.05458 0.671689,-0.86924 1.758245,-1.34337 1.086555,-0.47414 2.350911,-0.47414 1.639711,0 2.825044,0.63218 1.185334,0.63218 1.857023,1.79776 l -1.501423,1.48166 q -0.5334,-0.889 -1.343378,-1.44215 -0.809977,-0.55316 -1.896533,-0.55316 -1.086556,0 -1.837267,0.51365 -0.730955,0.49389 -0.730955,1.38289 0,1.00753 0.770466,1.48166 0.790223,0.45438 2.074334,0.73096 1.165578,0.23706 2.212622,0.73095 1.047045,0.49389 1.698978,1.28411 0.671689,0.77047 0.671689,1.87678 0,1.97556 -1.343378,3.14114 -1.343378,1.16557 -3.694289,1.16557 -1.6002,0 -2.923822,-0.63217 -1.303867,-0.63218 -2.291645,-2.05458 z"
         style="font-style:normal;font-variant:normal;font-weight:normal;font-stretch:normal;font-size:19.75555611px;font-family:'Lexend Deca';-inkscape-font-specification:'Lexend Deca';letter-spacing:-0.40745831px;baseline-shift:baseline;fill:#ffffff;stroke-width:0.26458332"
         id="path841"
         inkscape:connector-curvature="0" />
    </g>
  </g>
</svg>
